<svg width="12" height="12" viewBox="0 0 16 16" fill="none" xmlns="http://www.w3.org/2000/svg"><path d="M15 2C15 1.44772 14.5523 1 14 1H9.5C9.22386 1 9 1.22386 9 1.5V2.5C9 2.77614 9.22386 3 9.5 3H11.5859L8.93943 5.64645C8.74417 5.84171 8.74417 6.15829 8.93943 6.35355L9.64654 7.06066C9.8418 7.25592 10.1584 7.25592 10.3536 7.06066L13 4.4143V6.5C13 6.77614 13.2239 7 13.5 7H14.5C14.7761 7 15 6.77614 15 6.5V2Z" fill="white"></path><path d="M3 11.5857L5.64635 8.93934C5.84162 8.74408 6.1582 8.74408 6.35346 8.93934L7.06057 9.64645C7.25583 9.84171 7.25583 10.1583 7.06057 10.3536L4.41412 13H6.5C6.77614 13 7 13.2239 7 13.5V14.5C7 14.7761 6.77614 15 6.5 15L2 15C1.44772 15 1 14.5523 1 14V9.5C1 9.22386 1.22386 9 1.5 9H2.5C2.77614 9 3 9.22386 3 9.5L3 11.5857Z" fill="white"></path></svg>