<svg width="14" height="14" viewBox="0 0 16 16" fill="none" xmlns="http://www.w3.org/2000/svg"><path d="M8.40009 6.49999C8.40009 6.26339 8.28106 6.00564 8.04451 6.00048C8.02973 6.00016 8.01492 6 8.00006 6C6.89549 6 6.00006 6.89543 6.00006 8C6.00006 9.10457 6.89549 10 8.00006 10C9.10463 10 10.0001 9.10457 10.0001 8C10.0001 7.98515 9.9999 7.97034 9.99958 7.95556C9.99442 7.71902 9.73668 7.59999 9.50009 7.59999C8.89257 7.59999 8.40009 7.10751 8.40009 6.49999Z" fill="white"></path><path fill-rule="evenodd" clip-rule="evenodd" d="M8.00007 3C6.27553 3 4.72756 3.67368 3.51285 4.44509C2.29268 5.21996 1.33989 6.13702 0.785523 6.72836C0.110228 7.44871 0.11023 8.5513 0.785524 9.27164C1.33989 9.86299 2.29268 10.78 3.51285 11.5549C4.72756 12.3263 6.27553 13 8.00007 13C9.72461 13 11.2726 12.3263 12.4873 11.5549C13.7075 10.78 14.6603 9.86298 15.2146 9.27164C15.8899 8.55129 15.8899 7.4487 15.2146 6.72836C14.6602 6.13701 13.7075 5.21995 12.4873 4.44509C11.2726 3.67368 9.72461 3 8.00007 3ZM4.58502 9.86659C3.9859 9.48611 3.45632 9.05961 3.02212 8.66695C2.62507 8.30788 2.62507 7.69212 3.02212 7.33305C3.45632 6.94039 3.9859 6.51389 4.58502 6.13341C5.61929 5.4766 6.79271 5 8.00007 5C9.20743 5 10.3809 5.4766 11.4151 6.13341C12.0142 6.51388 12.5438 6.94039 12.978 7.33305C13.3751 7.69212 13.3751 8.30788 12.978 8.66695C12.5438 9.05961 12.0142 9.48611 11.4151 9.86659C10.3809 10.5234 9.20743 11 8.00007 11C6.79271 11 5.61929 10.5234 4.58502 9.86659Z" fill="white"></path></svg>